<?xml version="1.0" standalone="no"?>
<!DOCTYPE svg PUBLIC "-//W3C//DTD SVG 20010904//EN"
 "http://www.w3.org/TR/2001/REC-SVG-20010904/DTD/svg10.dtd">
<svg version="1.0" xmlns="http://www.w3.org/2000/svg"
 width="529.000000pt" height="529.000000pt" viewBox="0 0 529.000000 529.000000"
 preserveAspectRatio="xMidYMid meet">
<metadata>
Created by potrace 1.14, written by Peter Selinger 2001-2017
</metadata>
<g transform="translate(0.000000,529.000000) scale(0.100000,-0.100000)"
fill="#000000" stroke="none">
<path d="M2655 4002 c-2 -2 -41 -10 -87 -18 -194 -34 -339 -104 -480 -233 -37
-34 -83 -84 -103 -111 -20 -27 -66 -73 -102 -102 -183 -145 -313 -408 -313
-633 l0 -51 -40 2 c-28 1 -50 10 -75 33 -43 37 -84 55 -176 78 -63 15 -70 15
-93 0 -34 -23 -77 -98 -83 -146 -4 -32 -1 -46 18 -70 22 -28 29 -30 88 -30 46
-1 70 4 82 15 20 18 109 32 109 18 0 -17 -15 -30 -92 -83 -132 -90 -203 -191
-178 -250 20 -50 81 -100 124 -103 46 -3 63 14 153 152 66 101 101 140 124
140 9 0 27 8 40 19 l23 18 37 -76 c21 -42 53 -94 71 -116 19 -22 40 -55 48
-73 29 -73 178 -182 248 -182 17 0 150 -28 159 -34 0 -1 -12 -39 -28 -86 -16
-47 -29 -95 -29 -108 0 -24 -32 -42 -73 -42 -20 0 -78 -39 -279 -186 -53 -39
-194 -185 -266 -277 -69 -87 -127 -186 -137 -233 -4 -20 -14 -34 -26 -37 -28
-7 -23 -39 12 -74 l30 -32 -22 -168 c-19 -140 -23 -218 -23 -468 -1 -165 1
-335 3 -377 l4 -78 1048 0 1049 0 0 84 c0 86 -13 276 -30 431 -5 50 -11 147
-14 217 -2 70 -10 143 -17 162 -10 26 -10 44 -2 70 19 63 -10 157 -150 476
-53 120 -58 127 -127 186 -39 34 -108 83 -153 109 -45 27 -127 75 -182 108
-65 39 -110 59 -127 58 -16 -1 -28 1 -28 4 0 15 33 141 39 147 3 3 56 0 116
-8 184 -23 436 -18 537 12 12 4 15 0 11 -16 -7 -25 2 -25 108 0 91 23 212 64
299 103 30 13 58 25 63 25 33 4 201 107 289 177 102 81 127 97 113 75 -3 -6 1
-7 10 -4 26 10 90 115 123 201 74 190 96 327 95 591 l0 202 24 6 c35 9 26 39
-12 40 -17 0 -40 6 -52 12 -18 10 -25 9 -40 -7 -12 -12 -39 -20 -78 -24 -87
-9 -273 -58 -400 -106 -60 -23 -117 -45 -126 -47 -12 -4 -21 10 -39 58 -122
337 -381 558 -742 632 -42 9 -92 16 -111 16 -18 0 -37 3 -41 7 -7 7 -114 12
-121 5z m96 -784 l-4 -43 -13 30 c-18 41 -17 55 4 55 15 0 17 -7 13 -42z"/>
</g>
</svg>
